. 
  
http://www.torrentday.com/        :     The Hottest Private Tracker On The Net!!!
 
http://www.torrentday.com          :     Once & For all ;)


               www . TorrentDay . Com 

(((((((((((((= Enjoy No RAR releases =))))))))))))))))))))


...................................NFO:....................................

.[img]http://img521.imageshack.us/img521/1738/fneu.jpg[/img]

[color=blue][size=5][b]F 2010 BDRip XVID AC3 HQ Hive-CM8[/b][/size][/color]



[b]Thx Hive

CM8 Doing It Right The First Time :D

Why download a touched up rip of a rip BRrip
Get the real deal BDRip
Enjoy

Source UK Bluray

Video: 720x400 @bitrate 2200 2pass
Audio: DTS to AC3 5.1 @448
Sample: yes included
Subs: yes in srt /subs[/b]
 
http://www.imdb.com/title/tt1486670/


General
Complete name                    : F.2010.BDRip.XVID.AC3.HQ.Hive-CM8.avi
Format                           : AVI
Format/Info                      : Audio Video Interleave
File size                        : 1.42 GiB
Duration                         : 1h 15mn
Overall bit rate                 : 2 706 Kbps
Writing application              : Nandub v1.0rc2
Writing library                  : Nandub build 1853/release

Video
ID                               : 0
Format                           : MPEG-4 Visual
Format profile                   : Advanced Simple@L5
Format settings, BVOP            : Yes
Format settings, QPel            : Yes
Format settings, GMC             : No warppoints
Format settings, Matrix          : Default (H.263)
Muxing mode                      : Packed bitstream
Codec ID                         : XVID
Codec ID/Hint                    : XviD
Duration                         : 1h 15mn
Bit rate                         : 2 248 Kbps
Width                            : 720 pixels
Height                           : 400 pixels
Display aspect ratio             : 16:9
Frame rate                       : 25.000 fps
Color space                      : YUV
Chroma subsampling               : 4:2:0
Bit depth                        : 8 bits
Scan type                        : Progressive
Bits/(Pixel*Frame)               : 0.312
Stream size                      : 1.18 GiB (83%)
Writing library                  : XviD 1.2.1 (UTC 2008-12-04)

Audio
ID                               : 1
Format                           : AC-3
Format/Info                      : Audio Coding 3
Mode extension                   : CM (complete main)
Codec ID                         : 2000
Duration                         : 1h 15mn
Bit rate mode                    : Constant
Bit rate                         : 448 Kbps
Channel(s)                       : 6 channels
Channel positions                : Front: L C R, Side: L R, LFE
Sampling rate                    : 48.0 KHz
Bit depth                        : 16 bits
Stream size                      : 242 MiB (17%)
Alignment                        : Split accross interleaves
Interleave, duration             : 40 ms (1.00 video frame)
Interleave, preload duration     : 500 ms




David Schofield ... Robert Anderson
Eliza Bennett ... Kate Anderson
Ruth Gemmell ... Sarah Balham
Juliet Aubrey ... Helen Anderson
Emma Cleasby ... Lucy
Finlay Robertson ... James
Roxanne McKee ... Nicky
Tom Mannion ... Gary
Max Fowler ... Jake Eaves
Mike Burnside ... Douglas
Christopher Adamson ... Janitor
Jamie Kenna ... Brian Stanton
Tina Barnes ... Policewoman
Alexander Ellis ... Policeman
Ian Cullen ... Maths Teacher


A group of teachers must defend themselves from a gang of
murderous kids when their school comes under siege after hours.  




[img]http://img203.imageshack.us/img203/4258/28952747.png[/img]
[img]http://img819.imageshack.us/img819/667/ffffffm.png[/img]
[img]http://img80.imageshack.us/img80/2994/65758469.png[/img]
[img]http://img220.imageshack.us/img220/6438/fffnq.png[/img]
[img]http://img705.imageshack.us/img705/6280/ffffjw.png[/img]
[img]http://img834.imageshack.us/img834/6466/fffffm.png[/img]





Greetz

iNK,LUSi,,MAGNET,CLASSiFiED,THC,LEGi0N,IMAGiNE,ViSiON,WBZ,FLAWL3SS,NOVA
Rapeseed,D2U,SAFC,goldadvance,MEMORY100,KaN1vE,Unevano,Pinnz,Wayne,Mr Hive
and all P2P groups 
Great Work Guys :D